<?xml version="1.0" encoding="iso-8859-1"?>
<!-- Generator: Adobe Illustrator 19.0.0, SVG Export Plug-In . SVG Version: 6.00 Build 0)  -->
<svg version="1.1" id="Layer_1" xmlns="http://www.w3.org/2000/svg" xmlns:xlink="http://www.w3.org/1999/xlink" x="0px" y="0px"
	 viewBox="0 0 512.001 512.001" style="enable-background:new 0 0 512.001 512.001;" xml:space="preserve">
<path style="fill:#FFCA12;" d="M117.534,355.157H40.611c-16.796,0-30.412-13.616-30.412-30.412V185.723
	c0-16.796,13.616-30.411,30.411-30.411h76.922v199.845H117.534z"/>
<polygon style="fill:#6ED3FF;" points="117.534,355.157 359.801,438.979 359.801,73.022 117.534,155.311 "/>
<polygon style="fill:#FFCA12;" points="501.801,280.577 477.225,256.001 501.801,231.425 474.333,203.957 449.757,228.533 
	425.181,203.957 397.714,231.425 422.29,256.001 397.714,280.577 425.181,308.044 449.757,283.468 474.333,308.044 "/>
<path d="M365.741,64.731c-2.674-1.915-6.106-2.424-9.221-1.367l-240.673,81.748H40.61C18.218,145.112,0,163.33,0,185.722v139.023
	c0,22.393,18.218,40.61,40.61,40.61h75.209l240.647,83.262c1.086,0.376,2.213,0.561,3.334,0.561c2.094,0,4.167-0.645,5.918-1.891
	c2.688-1.913,4.283-5.009,4.283-8.308V73.022C370.001,69.733,368.415,66.646,365.741,64.731z M20.398,324.745v-8.967h25.579
	c5.633,0,10.199-4.566,10.199-10.199c0-5.633-4.566-10.199-10.199-10.199H20.398V266.2h25.579c5.633,0,10.199-4.566,10.199-10.199
	c0-5.633-4.566-10.199-10.199-10.199H20.398v-30.713h25.579c5.633,0,10.199-4.566,10.199-10.199c0-5.633-4.566-10.199-10.199-10.199
	H20.398v-8.967c0-11.145,9.067-20.212,20.212-20.212h66.723v179.447H40.61C29.465,344.958,20.398,335.891,20.398,324.745z
	 M349.602,424.659l-221.869-76.765V162.619l221.869-75.361V424.659z"/>
<path d="M166.6,186.669c1.087,0,2.194-0.175,3.281-0.545l105.288-35.762c5.333-1.811,8.189-7.605,6.377-12.938
	c-1.812-5.333-7.604-8.188-12.938-6.377L163.32,166.81c-5.333,1.811-8.189,7.605-6.377,12.938
	C158.385,183.994,162.351,186.669,166.6,186.669z"/>
<path d="M307.666,138.755c1.087,0,2.194-0.175,3.281-0.545l9.2-3.124c5.333-1.811,8.189-7.604,6.378-12.938
	c-1.811-5.334-7.603-8.187-12.938-6.378l-9.2,3.124c-5.333,1.811-8.189,7.604-6.378,12.938
	C299.453,136.078,303.418,138.755,307.666,138.755z"/>
<path d="M491.649,256.001l17.364-17.364c3.983-3.983,3.983-10.441,0-14.425l-27.467-27.467c-3.983-3.983-10.441-3.983-14.425,0
	l-17.364,17.364l-17.364-17.364c-3.983-3.983-10.441-3.983-14.425,0L390.5,224.212c-3.983,3.983-3.983,10.441,0,14.424
	l17.366,17.365l-17.364,17.364c-3.983,3.983-3.983,10.441,0,14.424l27.467,27.467c3.983,3.983,10.441,3.983,14.425,0l17.364-17.364
	l17.364,17.364c1.992,1.992,4.602,2.987,7.212,2.987c2.61,0,5.221-0.995,7.212-2.987l27.467-27.467
	c3.983-3.983,3.983-10.441,0-14.425L491.649,256.001z M470.013,263.212l17.364,17.364l-13.044,13.044l-17.364-17.364
	c-1.992-1.992-4.602-2.987-7.212-2.987c-2.61,0-5.221,0.995-7.212,2.987l-17.364,17.364l-13.044-13.044l17.364-17.364
	c3.983-3.983,3.983-10.44,0-14.424l-17.364-17.364l13.044-13.044l17.364,17.364c3.983,3.983,10.441,3.983,14.425,0l17.364-17.364
	l13.044,13.044l-17.364,17.364C466.03,252.771,466.03,259.23,470.013,263.212z"/>
<g>
</g>
<g>
</g>
<g>
</g>
<g>
</g>
<g>
</g>
<g>
</g>
<g>
</g>
<g>
</g>
<g>
</g>
<g>
</g>
<g>
</g>
<g>
</g>
<g>
</g>
<g>
</g>
<g>
</g>
</svg>
