<?xml version="1.0" encoding="iso-8859-1"?>
<!-- Generator: Adobe Illustrator 19.0.0, SVG Export Plug-In . SVG Version: 6.00 Build 0)  -->
<svg version="1.1" id="Layer_1" xmlns="http://www.w3.org/2000/svg" xmlns:xlink="http://www.w3.org/1999/xlink" x="0px" y="0px"
	 viewBox="0 0 512 512" style="enable-background:new 0 0 512 512;" xml:space="preserve">
<path style="fill:#FFCA12;" d="M104.027,342.679H36.783c-14.682,0-26.584-11.902-26.584-26.584v-121.53
	c0-14.682,11.902-26.584,26.584-26.584h67.243C104.027,167.981,104.027,342.679,104.027,342.679z"/>
<polygon style="fill:#6ED3FF;" points="104.027,342.679 315.809,415.953 315.809,96.047 104.027,167.981 "/>
<g>
	<rect x="344.203" y="262.313" style="fill:#FFCA12;" width="33.953" height="59.897"/>
	<rect x="406.061" y="227.493" style="fill:#FFCA12;" width="33.953" height="94.72"/>
	<rect x="467.848" y="189.787" style="fill:#FFCA12;" width="33.953" height="132.426"/>
</g>
<path d="M321.749,87.756c-2.673-1.915-6.106-2.424-9.22-1.367l-210.187,71.392H36.783C16.501,157.782,0,174.283,0,194.565v121.529
	c0,20.283,16.501,36.783,36.783,36.783h65.529l210.161,72.714c1.086,0.376,2.213,0.561,3.334,0.561c2.095,0,4.167-0.645,5.918-1.891
	c2.688-1.913,4.283-5.009,4.283-8.308V96.046C326.008,92.758,324.422,89.671,321.749,87.756z M20.398,316.094v-6.556h21.077
	c5.633,0,10.199-4.566,10.199-10.199c0-5.633-4.566-10.199-10.199-10.199H20.398v-22.94h21.077c5.633,0,10.199-4.566,10.199-10.199
	c0-5.633-4.566-10.199-10.199-10.199H20.398V221.52h21.077c5.633,0,10.199-4.566,10.199-10.199c0-5.633-4.566-10.199-10.199-10.199
	H20.398v-6.556c0-9.034,7.351-16.385,16.385-16.385h57.044v154.3H36.783C27.749,332.48,20.398,325.129,20.398,316.094z
	 M305.61,401.633l-191.384-66.217V175.288l191.384-65.006V401.633z"/>
<path d="M146.919,196.677c1.087,0,2.194-0.175,3.281-0.545l92.041-31.263c5.333-1.811,8.189-7.605,6.377-12.938
	c-1.812-5.333-7.602-8.188-12.938-6.377l-92.041,31.263c-5.333,1.811-8.189,7.605-6.377,12.938
	C138.704,194.001,142.67,196.677,146.919,196.677z"/>
<path d="M270.234,154.791c1.087,0,2.194-0.175,3.281-0.545l8.042-2.731c5.333-1.811,8.189-7.605,6.378-12.938
	c-1.81-5.333-7.605-8.186-12.938-6.377l-8.042,2.731c-5.333,1.811-8.189,7.605-6.378,12.938
	C262.02,152.116,265.985,154.791,270.234,154.791z"/>
<path d="M378.158,252.118h-33.956c-5.632,0-10.199,4.566-10.199,10.199v59.897c0,5.633,4.567,10.199,10.199,10.199h33.956
	c5.632,0,10.199-4.566,10.199-10.199v-59.897C388.357,256.685,383.791,252.118,378.158,252.118z M367.959,312.015h-13.558v-39.498
	h13.558V312.015z"/>
<path d="M440.015,217.294h-33.957c-5.632,0-10.199,4.566-10.199,10.199v94.721c0,5.633,4.567,10.199,10.199,10.199h33.957
	c5.632,0,10.199-4.566,10.199-10.199v-94.721C450.214,221.86,445.647,217.294,440.015,217.294z M429.816,312.015h-13.559v-74.323
	h13.559V312.015z"/>
<path d="M501.801,179.587h-33.956c-5.632,0-10.199,4.566-10.199,10.199v132.428c0,5.633,4.567,10.199,10.199,10.199h33.956
	c5.632,0,10.199-4.566,10.199-10.199V189.786C512,184.153,507.433,179.587,501.801,179.587z M491.602,312.015h-13.558v-112.03
	h13.558V312.015z"/>
<g>
</g>
<g>
</g>
<g>
</g>
<g>
</g>
<g>
</g>
<g>
</g>
<g>
</g>
<g>
</g>
<g>
</g>
<g>
</g>
<g>
</g>
<g>
</g>
<g>
</g>
<g>
</g>
<g>
</g>
</svg>
